<?xml version="1.0" encoding="utf-8"?>
<!-- Generator: Adobe Illustrator 23.0.2, SVG Export Plug-In . SVG Version: 6.00 Build 0)  -->
<svg version="1.1" id="Layer_1" xmlns="http://www.w3.org/2000/svg" xmlns:xlink="http://www.w3.org/1999/xlink" x="0px" y="0px"
	 viewBox="0 0 557.6 388.5" style="enable-background:new 0 0 557.6 388.5;" xml:space="preserve">
<style type="text/css">
	.st0{fill:#FCBA35;}
	.st1{fill:#FFF0A9;}
</style>
<g>
	<ellipse class="st0" cx="254.2" cy="304.2" rx="169.2" ry="23.1"/>
	<g>
		<path class="st0" d="M222.7,302.1l-4,1.5c-4.9,1.8-10.3-0.7-12.1-5.6L160,172.2c-0.1-0.3-0.2-0.6-0.3-1c-0.4-1.5-0.4-3.1,0-4.6
			c0.7-2.9,2.8-5.4,5.9-6.6l4-1.5c3-1.1,6.3-0.6,8.7,1.1c1.2,0.9,2.3,2.1,3,3.5c0.1,0.3,0.3,0.6,0.4,0.9l4.5,12.2l5.2,14.1
			l36.9,99.5C230.1,294.9,227.6,300.3,222.7,302.1z"/>
	</g>
	<g>
		<path class="st1" d="M243.7,135.5L94.2,190.9c-16.7,6.2-35.3-2.3-41.5-19.1l-18.1-48.8c-6.2-16.7,2.3-35.3,19.1-41.5l149.5-55.4
			c16.7-6.2,35.3,2.3,41.5,19.1L262.8,94C269,110.7,260.4,129.3,243.7,135.5z"/>
		<path class="st0" d="M271.6,105.3l-11-29.6l-5.2-14.1L244,30.8c-2.1-5.7-6.4-10.3-11.9-12.9c-5.6-2.6-11.8-2.8-17.5-0.7l-21.5,8
			l-6.2,2.3l-76.1,28.2l-9.9,3.7L67.6,71.8l-9.9,3.7l-18.5,6.8c-11.8,4.4-17.9,17.6-13.5,29.5l13,35.2L44,161l9.4,25.2
			c3.4,9.2,12.2,15,21.5,15c2.6,0,5.3-0.5,8-1.4l21.7-8l9.9-3.7l33.1-12.3h0l9.9-3.7l2.2-0.8l21.6-8l9.3-3.5l9.9-3.7l33.1-12.3
			l9.9-3.7l14.6-5.4C269.9,130.4,276,117.2,271.6,105.3z M255.1,126.7l-8.8,3.3l-9.9,3.7l-33.1,12.3l-9.9,3.7l-33.1,12.3l-9.9,3.7
			l-33.1,12.3l-9.9,3.7l-27.4,10.2c-1.8,0.7-3.6,0.9-5.4,0.9c-3-0.1-5.8-1.1-8.2-2.9c-2.1-1.6-3.8-3.8-4.8-6.4l-13.6-36.7l-5.2-14.1
			l-8.8-23.7c-2.7-7.4,1-15.6,8.4-18.4L55,85.7l9.9-3.7l33.1-12.3L108,66l33.1-12.3l9.9-3.7l33.1-12.3l9.9-3.7l23.5-8.7
			c1.6-0.6,3.3-0.9,5-0.9c1.3,0,2.6,0.2,3.8,0.5c3,0.8,5.7,2.6,7.6,5.1c0.8,1.1,1.5,2.3,2,3.7l15.7,42.3l5.2,14.1l6.7,18.2
			c1.3,3.6,1.2,7.5-0.4,10.9C261.5,122.7,258.6,125.4,255.1,126.7z"/>
	</g>
	<g>
		<polygon class="st0" points="67.6,71.8 66.3,76.9 64.9,82 47.8,146.5 45.9,153.7 45.9,153.8 44,161 38.8,146.9 40.7,139.7 
			40.7,139.7 42.6,132.5 55,85.7 56.4,80.6 57.7,75.5 		"/>
	</g>
	<g>
		<polygon class="st0" points="110.7,55.8 109.3,60.9 108,66 74.4,192.5 73.9,194.4 65.6,192.2 66.3,189.7 98.1,69.7 99.4,64.6 
			100.8,59.5 		"/>
	</g>
	<g>
		<polygon class="st0" points="151.3,48.9 151,50.1 117.1,177.8 115.8,182.9 114.4,188 104.5,191.7 105.9,186.6 107.2,181.5 
			141.1,53.8 142.4,48.7 143,46.7 145.8,47.4 		"/>
	</g>
	<g>
		<polygon class="st0" points="186.8,27.6 185.5,32.7 184.1,37.8 150.3,165.5 148.9,170.6 148.9,170.6 147.6,175.7 157.5,172.1 
			158.8,167 160.2,161.9 194,34.1 195.4,29 196.1,26.1 193,25.3 		"/>
	</g>
	<g>
		<polygon class="st0" points="186.2,176.4 191.4,190.5 190.3,194.4 182,192.2 		"/>
		<polygon class="st0" points="236.4,20.6 235.2,25.2 233.9,30.2 203.2,145.9 201.8,151 200.5,156.1 190.6,159.8 191.9,154.7 
			193.3,149.6 226.3,25 227.4,20.9 228,18.4 		"/>
	</g>
	<g>
		<polygon class="st0" points="260.6,75.7 258.7,82.9 256.8,90.2 246.2,130 244.9,135.1 243.5,140.2 233.6,143.8 235,138.7 
			236.3,133.6 251.6,76.1 253.5,68.9 255.4,61.6 		"/>
	</g>
</g>
<path class="st0" d="M419.4,347.4l20.9-18.4l80.4-10c0,0,10.9,19.3,3.3,28.5l-78.7,10.9L419.4,347.4z"/>
</svg>
