<?xml version="1.0" encoding="utf-8"?>
<!-- Generator: Adobe Illustrator 23.0.3, SVG Export Plug-In . SVG Version: 6.00 Build 0)  -->
<svg version="1.1" id="Logo" xmlns="http://www.w3.org/2000/svg" xmlns:xlink="http://www.w3.org/1999/xlink" x="0px" y="0px"
	 viewBox="0 0 512 512" style="enable-background:new 0 0 512 512;" xml:space="preserve">
<style type="text/css">
	.st0{fill:#FFFFFF;}
</style>
<circle class="st0" cx="258.4" cy="254.3" r="253.6"/>
<g>
	<path d="M256,122.9c43.4,0,48.5,0.2,65.6,0.9c15.8,0.7,24.4,3.4,30.2,5.6c7.6,2.9,13,6.5,18.7,12.1c5.7,5.7,9.2,11.1,12.1,18.7
		c2.2,5.7,4.9,14.3,5.6,30.2c0.8,17.1,0.9,22.3,0.9,65.6s-0.2,48.5-0.9,65.6c-0.7,15.8-3.4,24.4-5.6,30.2c-2.9,7.6-6.5,13-12.1,18.7
		c-5.7,5.7-11.1,9.2-18.7,12.1c-5.7,2.2-14.3,4.9-30.2,5.6c-17.1,0.8-22.3,0.9-65.6,0.9s-48.5-0.2-65.6-0.9
		c-15.8-0.7-24.4-3.4-30.2-5.6c-7.6-2.9-13-6.5-18.7-12.1c-5.7-5.7-9.2-11.1-12.1-18.7c-2.2-5.7-4.9-14.3-5.6-30.2
		c-0.8-17.1-0.9-22.3-0.9-65.6s0.2-48.5,0.9-65.6c0.7-15.8,3.4-24.4,5.6-30.2c2.9-7.6,6.5-13,12.1-18.7c5.7-5.7,11.1-9.2,18.7-12.1
		c5.7-2.2,14.3-4.9,30.2-5.6C207.5,123,212.6,122.9,256,122.9 M256,93.6c-44.1,0-49.6,0.2-67,1c-17.3,0.8-29.1,3.5-39.4,7.5
		c-10.7,4.2-19.7,9.7-28.8,18.7c-9,9-14.6,18.1-18.7,28.8c-4,10.3-6.8,22.1-7.5,39.4c-0.8,17.3-1,22.9-1,67c0,44.1,0.2,49.6,1,67
		c0.8,17.3,3.5,29.1,7.5,39.4c4.2,10.7,9.7,19.7,18.7,28.8c9,9,18.1,14.6,28.8,18.7c10.3,4,22.1,6.8,39.4,7.5c17.3,0.8,22.9,1,67,1
		s49.6-0.2,67-1c17.3-0.8,29.1-3.5,39.4-7.5c10.7-4.2,19.7-9.7,28.8-18.7c9-9,14.6-18.1,18.7-28.8c4-10.3,6.8-22.1,7.5-39.4
		c0.8-17.3,1-22.9,1-67s-0.2-49.6-1-67c-0.8-17.3-3.5-29.1-7.5-39.4c-4.2-10.7-9.7-19.7-18.7-28.8c-9-9-18.1-14.6-28.8-18.7
		c-10.3-4-22.1-6.8-39.4-7.5C305.6,93.8,300.1,93.6,256,93.6L256,93.6z"/>
	<path d="M256,172.6c-46.1,0-83.4,37.3-83.4,83.4s37.3,83.4,83.4,83.4s83.4-37.3,83.4-83.4S302.1,172.6,256,172.6z M256,310.1
		c-29.9,0-54.1-24.2-54.1-54.1c0-29.9,24.2-54.1,54.1-54.1c29.9,0,54.1,24.2,54.1,54.1C310.1,285.9,285.9,310.1,256,310.1z"/>
	<circle cx="342.7" cy="169.3" r="19.5"/>
</g>
</svg>
