<?xml version="1.0" encoding="utf-8"?>
<!-- Generator: Adobe Illustrator 23.0.3, SVG Export Plug-In . SVG Version: 6.00 Build 0)  -->
<svg version="1.1" xmlns="http://www.w3.org/2000/svg" xmlns:xlink="http://www.w3.org/1999/xlink" x="0px" y="0px"
	 viewBox="0 0 216 216" style="enable-background:new 0 0 216 216;" xml:space="preserve">
<style type="text/css">
	.st0{fill:none;stroke:#FDBA33;stroke-width:10;stroke-miterlimit:10;}
	.st1{fill:#447BBE;}
	.st2{fill:#FDBA33;}
	.st3{fill:#FDBC49;}
	.st4{fill:#333D98;}
	.st5{fill:#E87535;}
	.st6{fill:#279FD9;}
	.st7{fill:#2A2D6B;}
	.st8{clip-path:url(#SVGID_2_);}
	.st9{fill:url(#);}
	.st10{fill:url(#SVGID_3_);}
	.st11{fill:url(#SVGID_4_);}
	.st12{fill:url(#SVGID_5_);}
	.st13{clip-path:url(#SVGID_7_);fill:#2A2D6B;}
	.st14{fill:#4388C8;stroke:#4388C8;stroke-miterlimit:10;}
	.st15{opacity:0.6;fill:#4388C8;stroke:#4388C8;stroke-miterlimit:10;}
	.st16{fill:#4388C8;}
	.st17{fill:#FBB040;}
	.st18{fill:#FBB042;}
	.st19{fill:#FFFFFF;}
	.st20{fill:none;stroke:#FDBA33;stroke-width:0.25;stroke-linecap:round;stroke-miterlimit:10;}
	.st21{fill:url(#SVGID_8_);}
	.st22{fill:url(#SVGID_9_);}
</style>
<g id="Layer_1">
</g>
<g id="Layer_2">
	<g>
		<g>
			<path class="st2" d="M122,24.9c-42.1,1.8-74.8,37.3-73,79.4c0.8,18.6,8.1,35.3,19.7,48.1c-0.2,0.3-0.5,0.5-0.7,0.7
				c-39.5,43.9-55.1,2.3-55.1,2.3s-2.1,16.9,31.9,28.7c30,10.4,53-6.1,57.9-10.1c8.1,2.5,16.8,3.7,25.8,3.3
				c42.1-1.8,74.8-37.3,73-79.4S164.1,23.2,122,24.9z"/>
		</g>
		<g>
			<g>
				<path class="st7" d="M96.4,67.7l9.3,0l0,25c1.8-3.4,5-5.2,9.1-5.2c6.4,0,11,4.7,11,13l0,16.9l-9.3,0l0-16.3
					c0-3.3-1.6-5.2-4.9-5.2c-3.7,0-5.9,2.1-5.9,5.8l0,15.7l-9.3,0L96.4,67.7z"/>
				<path class="st7" d="M129.3,77.3c0-3.4,2.7-5.8,5.9-5.8c3.2,0,5.8,2.4,5.9,5.8c0,3.4-2.7,5.8-5.8,5.8
					C132,83.2,129.3,80.8,129.3,77.3z M130.5,88.1l9.3,0l0,29.3l-9.3,0L130.5,88.1z"/>
				<path class="st7" d="M142.4,112.2c0-3.2,2.5-5.5,5.6-5.5c3,0,5.5,2.3,5.5,5.5c0,3.2-2.5,5.6-5.5,5.6
					C144.9,117.7,142.4,115.4,142.4,112.2z"/>
			</g>
		</g>
	</g>
</g>
</svg>
