<?xml version="1.0" encoding="utf-8"?>
<!-- Generator: Adobe Illustrator 23.0.3, SVG Export Plug-In . SVG Version: 6.00 Build 0)  -->
<svg version="1.1" xmlns="http://www.w3.org/2000/svg" xmlns:xlink="http://www.w3.org/1999/xlink" x="0px" y="0px"
	 viewBox="0 0 403.9 158.5" style="enable-background:new 0 0 403.9 158.5;" xml:space="preserve">
<style type="text/css">
	.st0{fill:none;stroke:#FDBA33;stroke-width:10;stroke-miterlimit:10;}
	.st1{fill:#447BBE;}
	.st2{fill:#FDBA33;}
	.st3{fill:#FDBC49;}
	.st4{fill:#333D98;}
	.st5{fill:#E87535;}
	.st6{fill:#279FD9;}
	.st7{fill:#2A2D6B;}
	.st8{clip-path:url(#SVGID_2_);}
	.st9{fill:url(#);}
	.st10{fill:url(#SVGID_3_);}
	.st11{fill:url(#SVGID_4_);}
	.st12{fill:url(#SVGID_5_);}
	.st13{clip-path:url(#SVGID_7_);fill:#2A2D6B;}
	.st14{fill:#4388C8;stroke:#4388C8;stroke-miterlimit:10;}
	.st15{opacity:0.6;fill:#4388C8;stroke:#4388C8;stroke-miterlimit:10;}
	.st16{fill:#4388C8;}
	.st17{fill:#FBB040;}
	.st18{fill:#FBB042;}
	.st19{fill:#FFFFFF;}
	.st20{fill:none;stroke:#FDBA33;stroke-width:0.25;stroke-linecap:round;stroke-miterlimit:10;}
	.st21{fill:url(#SVGID_8_);}
	.st22{fill:url(#SVGID_9_);}
</style>
<g id="Layer_1">
</g>
<g id="Layer_2">
	<g>
		<g>
			<g>
				<path class="st19" d="M35,84l0.2,4.9H24.6V31.9h10.7V60c2.2-3.3,5.5-5.5,10.6-5.5c8.2,0,15,7.1,15,17.5s-7,17.6-15.3,17.6
					C40.4,89.6,36.9,87.6,35,84z M49.9,72c0-5-2.8-8.1-7.4-8.1c-4.6,0-7.6,3.1-7.6,8.1c0,5.3,3,8.3,7.6,8.3
					C47,80.3,49.9,77.3,49.9,72z"/>
				<path class="st19" d="M86.5,80.8c3.9,0,6.8-1.5,8.5-2.7l6.1,6.6c-3.2,2.8-7.4,5-14.4,5c-12,0-19.8-7.3-19.8-17.6
					c0-10.2,8.1-17.5,18.6-17.5c12.1,0,18.7,9,17.9,20.8H77.8C78.9,78.8,81.7,80.8,86.5,80.8z M92.6,69.2c-0.5-3.7-2.8-5.9-7-5.9
					c-4.2,0-7,1.9-7.9,5.9H92.6z"/>
				<path class="st19" d="M109.5,72c0-10.2,7.9-17.5,18.4-17.5c6.7,0,10.8,2.5,14.1,6.7l-7.6,6.2c-1.3-2.1-3.9-3.6-6.6-3.6
					c-4.8,0-7.5,3.4-7.5,8.1c0,4.9,2.7,8.4,7.5,8.4c3.4,0,5.2-1.6,6.8-3.2l7.2,6.3c-3.3,3.7-7.3,6.1-14,6.1
					C117.4,89.6,109.5,82.4,109.5,72z"/>
				<path class="st19" d="M146.4,72c0-10.2,7.9-17.5,18.4-17.5c6.7,0,10.8,2.5,14.1,6.7l-7.6,6.2c-1.3-2.1-3.9-3.6-6.6-3.6
					c-4.8,0-7.5,3.4-7.5,8.1c0,4.9,2.7,8.4,7.5,8.4c3.4,0,5.2-1.6,6.8-3.2l7.2,6.3c-3.3,3.7-7.3,6.1-14,6.1
					C154.3,89.6,146.4,82.4,146.4,72z"/>
				<path class="st19" d="M199.5,63.3c-4,0-6.2,1.7-7.7,3.1l-5.9-6.3c3.2-3.1,6.7-5.5,14.6-5.5c8.6,0,15.2,4.7,15.2,15.3v19.1h-10.6
					l0.2-4.7c-2.5,3.9-5.5,5.4-10,5.4c-6.2,0-11.9-2.8-11.9-10.6c0-7.2,5.5-10.1,13.8-10.1h7.8C204.9,65.1,203,63.3,199.5,63.3z
					 M197.8,75.3c-2.7,0-3.9,1.2-3.9,3.1c0,1.9,1.6,3,4.6,3c4.3,0,6.6-1.9,6.6-4.7v-1.3H197.8z"/>
				<path class="st19" d="M238.5,72c0-10.4,7-17.5,15.1-17.5c5.4,0,8.4,2.1,10.5,5.5V31.9h10.7v57.1h-10.7l0.2-4.9
					c-1.9,3.6-5.5,5.6-10.6,5.6C245.6,89.6,238.5,82.4,238.5,72z M264.5,72c0-5-3-8.1-7.6-8.1c-4.5,0-7.4,3.1-7.4,8.1
					c0,5.3,2.8,8.3,7.4,8.3C261.4,80.3,264.5,77.3,264.5,72z"/>
				<path class="st19" d="M282.2,42.9c0-3.9,3.2-6.6,6.8-6.6s6.7,2.8,6.7,6.6c0,4-3.1,6.7-6.7,6.7S282.2,46.9,282.2,42.9z
					 M283.6,55.3h10.7v33.7h-10.7V55.3z"/>
				<path class="st19" d="M303.3,31.9h10.6v57.1h-10.6V31.9z"/>
				<path class="st19" d="M325.7,76.3V64.1h-5v-8.9h5V37.7h10.6v17.5h8.6v8.9h-8.6v12.5c0,3.4,1.1,4.1,2.8,4.1c1.7,0,3-0.9,3.7-1.4
					l4,7.4c-1.7,1.3-4.5,3.1-9.4,3.1C330.6,89.8,325.7,86.4,325.7,76.3z"/>
				<path class="st19" d="M350.2,83.2l6.2-5.5c2.3,2.2,5.2,3.6,8.4,3.6c3.5,0,4.6-0.6,4.6-2.1c0-1.8-2.1-1.8-7.6-3.2
					c-4.6-1.2-9.7-3.7-9.7-10.8c0-7.6,5.8-10.7,13-10.7c5.5,0,9.5,1.8,12.3,4.7l-5.7,6.1c-1.6-1.3-4-2.5-6.5-2.5
					c-2.5,0-3.6,0.6-3.6,2c0,1.9,2.1,2.1,6.7,3.2c4.9,1.1,11.1,3.4,11.1,10.5c0,6.2-3.2,11.2-13.8,11.2
					C357.7,89.6,353.1,86.7,350.2,83.2z"/>
			</g>
		</g>
		<g>
			<path class="st19" d="M36.5,118.2h6.4v1.9c-1,0.6-2.5,1.2-4.7,1.2c-4.3,0-7.2-3-7.2-7.3c0-4.3,2.9-7.3,7-7.3
				c2.1,0,3.6,0.6,4.7,1.8l1.2,1.2l3.9-3.9l-1.1-1.2c-2-2.2-5-3.3-8.7-3.3c-7.4,0-12.7,5.3-12.7,12.7c0,7.3,5.4,12.7,12.9,12.7
				c5.5,0,8.6-2.4,9.7-3.5l0.4-0.4v-9.8H36.5V118.2z"/>
			<path class="st19" d="M75,111.2c0-5.8-4.2-9.6-10.6-9.6H58v24.8h5.6v-5.7h0.9c0.5,0,1,0,1.5-0.1l4.1,5.8h6.8l-5.5-7.7
				C73.7,117,75,114.4,75,111.2z M63.5,106.9h0.8c3.4,0,5,1.4,5,4.2c0,1.8-0.5,4.2-5,4.2h-0.8V106.9z"/>
			<path class="st19" d="M94.7,101.4h-2.6l-10.3,25h5.8l1.4-3.6h8.6l1.5,3.6h6l-10.1-24L94.7,101.4z M91.2,117.5l2.2-5.5l2.2,5.5
				H91.2z"/>
			<path class="st19" d="M119.6,101.6H113v24.8h5.6V121h0.9c6.5,0,10.5-3.7,10.5-9.7C130.1,105.3,126.1,101.6,119.6,101.6z
				 M118.6,115.7v-8.8h0.8c3.5,0,5,1.3,5,4.4c0,3.1-1.5,4.4-5,4.4H118.6z"/>
			<polygon class="st19" points="153.2,113.7 145,113.7 145,101.6 139.4,101.6 139.4,126.4 145,126.4 145,119.1 153.2,119.1 
				153.2,126.4 158.8,126.4 158.8,101.6 153.2,101.6 			"/>
			<rect x="169.3" y="101.6" class="st19" width="5.6" height="24.8"/>
			<path class="st19" d="M202.8,118.2l-0.1,0.2c-1.3,1.9-3.2,2.9-5.7,2.9c-4.1,0-7-3-7-7.3c0-4.3,2.9-7.3,7-7.3
				c2.3,0,4.3,0.9,5.4,2.7l1,1.4l4.4-3.2l-0.9-1.3c-2.1-3.2-5.6-4.9-9.9-4.9c-7.2,0-12.7,5.4-12.7,12.7c0,7.2,5.5,12.7,12.7,12.7
				c4.3,0,8-1.8,10.2-5.1l0.9-1.4l-4.5-3.1L202.8,118.2z"/>
			<path class="st19" d="M237.5,101.6h-6.9v24.8h6.9c7.9,0,13.3-5,13.3-12.4C250.8,106.6,245.4,101.6,237.5,101.6z M236.2,106.9h1.1
				c3.5,0,7.7,1.2,7.7,7c0,5.8-4.2,7-7.7,7h-1.1V106.9z"/>
			<polygon class="st19" points="265.6,119 275.2,119 275.2,113.7 265.6,113.7 265.6,106.9 276.4,106.9 276.4,101.6 260,101.6 
				260,126.4 276.9,126.4 276.9,121 265.6,121 			"/>
			<path class="st19" d="M295.3,111.2l-1.7-0.8c-2.5-1.1-2.5-1.6-2.5-2.3c0-0.3,0-1.4,1.8-1.4c1.2,0,1.9,0.4,2.6,1.5l0.9,1.4
				l4.6-2.9l-0.8-1.4c-1.6-2.6-4.1-4-7.2-4c-4.2,0-7.3,2.9-7.3,6.8c0,4.2,2.7,6,5.7,7.4l1.7,0.8c2.6,1.2,3.1,1.9,3.1,3
				c0,1.4-1.4,2-2.8,2c-2.4,0-3.4-1.2-4.1-2.5l-0.8-1.4l-4.7,2.5l0.7,1.4c1.7,3.4,4.9,5.3,9,5.3c4.9,0,8.3-3,8.3-7.3
				C301.7,115.6,299.8,113.2,295.3,111.2z"/>
			<rect x="311.1" y="101.6" class="st19" width="5.6" height="24.8"/>
			<path class="st19" d="M337.2,118.2h6.4v1.9c-1,0.6-2.5,1.2-4.7,1.2c-4.3,0-7.2-3-7.2-7.3c0-4.3,2.9-7.3,7-7.3
				c2.1,0,3.6,0.6,4.7,1.8l1.2,1.2l3.9-3.9l-1.1-1.2c-2-2.2-5-3.3-8.7-3.3c-7.4,0-12.7,5.3-12.7,12.7c0,7.3,5.4,12.7,12.9,12.7
				c5.5,0,8.6-2.4,9.7-3.5l0.4-0.4v-9.8h-11.9V118.2z"/>
			<polygon class="st19" points="373.2,101.6 373.2,115.2 361.4,101.4 358.6,101.4 358.6,126.4 364.1,126.4 364.1,112.8 
				375.8,126.6 378.6,126.6 378.6,101.6 			"/>
		</g>
	</g>
</g>
</svg>
